# xmcd
#
# Track frame offsets: 
#        183
#        13480
#        25730
#        39283
#        51238
#        63133
#        75818
#        87425
#        101590
#        113443
#        126888
#        139148
#        152663
#        162500
#        176003
#        190445
#        203238
#        218935
#        232673
#        247488
#        259420
#
# Disc length: 3588 seconds
#
# Revision: 3
# Processed by: cddbd v1.5.2PL0 Copyright (c) Steve Scherf et al.
# Submitted via: ExactAudioCopyFreeDBPlugin 1.0
#
DISCID=220e0215
DTITLE=Howlin' Wolf - Howlin' Wolf:  The Complete Recordings, 1951-196
DTITLE=9 [Charly box set]
DYEAR=1993
DGENRE=Blues
TTITLE0=Moaning at Midnight
TTITLE1=How Many More Years
TTITLE2=Wolf is at Your Front Door
TTITLE3=Howlin' Wolf Boogie
TTITLE4=Getting Old and Gray
TTITLE5=Mr. Highway Man
TTITLE6=Saddle My Pony
TTITLE7=Worried All the Time
TTITLE8=Oh Red
TTITLE9=My Last Affair
TTITLE10=Baby Ride with Me (Ridin' in the Moonlight)
TTITLE11=California Boogie
TTITLE12=Look a Here Baby
TTITLE13=Everybody's in the Mood (All in the Mood)
TTITLE14=Color and Kind
TTITLE15=Blue Bird
TTITLE16=Sweet Woman
TTITLE17=Well That's Alright
TTITLE18=Decoration Day
TTITLE19=Dorothy Mae (take 2)
TTITLE20=Come Back Home (take 3)
EXTD=
EXTT0=
EXTT1=
EXTT2=
EXTT3=
EXTT4=
EXTT5=
EXTT6=
EXTT7=
EXTT8=
EXTT9=
EXTT10=
EXTT11=
EXTT12=
EXTT13=
EXTT14=
EXTT15=
EXTT16=
EXTT17=
EXTT18=
EXTT19=
EXTT20=
PLAYORDER=
